{"title":"Iron.Man.And.Hulk-Heroes.United.2013.BRRip.XviD.Ac3.Feel-Free","uid":9252132,"size":1076043317,"categoryP":"video","categoryS":"movies","magnet":"?xt=urn:btih:2080160dea11651dd7fcca759e6ffbfb6a88796c&amp;dn=Iron.Man.And.Hulk-Heroes.United.2013.BRRip.XviD.Ac3.Feel-Free&amp;tr=udp%3A%2F%2Ftracker.openbittorrent.com%3A80&amp;tr=udp%3A%2F%2Fopen.demonii.com%3A1337&amp;tr=udp%3A%2F%2Ftracker.coppersurfer.tk%3A6969&amp;tr=udp%3A%2F%2Fexodus.desync.com%3A6969","seeders":12,"leechers":3,"uploader":"SaM","files":7,"time":1385483173,"description":"Genre: Animation | Action | Adventure\nLanguage:English\nIMDb:http://www.imdb.com/title/tt3221698/\nSource:720p.BluRay.DTS.x264-AXED Thanks\nSample:Never\nEncoder:Tony\n\nFormat : AVI\nFormat/Info : Audio Video Interleave\nFile size : 1.00 GiB\nDuration : 1h 11mn\nOverall bit rate : 1 998 Kbps\n\nVideo\nID : 0\nFormat : MPEG-4 Visual\nFormat profile : Advanced Simple@L5\nFormat settings, BVOP : 1\nFormat settings, QPel : No\nFormat settings, GMC : No warppoints\nFormat settings, Matrix : Default (H.263)\nCodec ID : XVID\nCodec ID/Hint : XviD\nDuration : 1h 11mn\nBit rate : 1 604 Kbps\nWidth : 640 pixels\nHeight : 360 pixels\nDisplay aspect ratio : 16:9\nFrame rate : 23.976 fps\nColor space : YUV\nChroma subsampling : 4:2:0\nBit depth : 8 bits\nScan type : Progressive\nCompression mode : Lossy\nBits/(Pixel*Frame) : 0.290\nStream size : 823 MiB (80%)\nWriting library : XviD 1.2.1 (UTC 2008-12-04)\n\nAudio\nID : 1\nFormat : AC-3\nFormat/Info : Audio Coding 3\nMode extension : CM (complete main)\nCodec ID : 2000\nDuration : 1h 11mn\nBit rate mode : Constant\nBit rate : 384 Kbps\nChannel(s) : 6 channels\nChannel positions : Front: L C R, Side: L R, LFE\nSampling rate : 48.0 KHz\nBit depth : 16 bits\nCompression mode : Lossy\nStream size : 197 MiB (19%)\nAlignment : Aligned on interleaves\nInterleave, duration : 42 ms (1.00 video frame)\nInterleave, preload duration : 512 ms\n\n &lt;a href=&quot;\nhttp://img845.imageshack.us/img845/1614/k3ql.png&quot; rel=&quot;nofollow&quot; target=&quot;_NEW&quot;&gt;\nhttp://img845.imageshack.us/img845/1614/k3ql.png&lt;/a&gt;\n &lt;a href=&quot;\nhttp://img196.imageshack.us/img196/717/dn5p.png&quot; rel=&quot;nofollow&quot; target=&quot;_NEW&quot;&gt;\nhttp://img196.imageshack.us/img196/717/dn5p.png&lt;/a&gt;\n &lt;a href=&quot;\nhttp://img443.imageshack.us/img443/4049/njks.png&quot; rel=&quot;nofollow&quot; target=&quot;_NEW&quot;&gt;\nhttp://img443.imageshack.us/img443/4049/njks.png&lt;/a&gt;\n\nGreets:\nCRYS,INSPiRAL,IMAGINE,LKRG,ADTRG,FXG,3Li,FLAWL3SS,CrEwSaDe,TA,iLLUSiON,EMBER,HOPE,GooN,BBnRG,NOGRP,ETRG,BHRG,iLLUMiNATi,MiSTERE.ViSiON,DTRG SAFCuk009,LU,TheFalcon007,MYSTiC,PrisM,Noir,WBZ,LAP,Rx,Kingdom,SAFCuk009+Fabreezy,HDLiTE,TWiZTED,ETRG.ELEKTRI4KA,MAGNAT,CM8\nAnd to all the other p2p grps past and present\n\n\n\nMake sure its a real Feel-Free release @ http://extratorrent.cc/upload/\nThanks to all who promotes release Feel-Free !!!","torrent":{"xt":"urn:btih:2080160dea11651dd7fcca759e6ffbfb6a88796c","amp;dn":"Iron.Man.And.Hulk-Heroes.United.2013.BRRip.XviD.Ac3.Feel-Free","amp;tr":["udp%3A%2F%2Ftracker.openbittorrent.com%3A80","udp%3A%2F%2Fopen.demonii.com%3A1337","udp%3A%2F%2Ftracker.coppersurfer.tk%3A6969","udp%3A%2F%2Fexodus.desync.com%3A6969"],"infoHash":"2080160dea11651dd7fcca759e6ffbfb6a88796c","infoHashBuffer":{"type":"Buffer","data":[32,128,22,13,234,17,101,29,215,252,202,117,158,111,251,251,106,136,121,108]},"announce":[],"urlList":[]}}